<?xml version="1.0" encoding="UTF-8"?>
<svg version="1.1" xmlns="http://www.w3.org/2000/svg" width="512" height="512">
<path d="M0 0 C20.1438665 16.42454107 32.54328996 37.41324119 37 63 C37 64.98 37 66.96 37 69 C50.2 69 63.4 69 77 69 C77 67.02 77 65.04 77 63 C79.3534359 58.47416174 82.20814487 54.9361859 87 53 C90.97227082 52.52062598 94.88147505 52.62212851 98.875 52.75 C99.94492187 52.76804687 101.01484375 52.78609375 102.1171875 52.8046875 C104.74572178 52.85162561 107.37238913 52.91727067 110 53 C110.103125 52.113125 110.20625 51.22625 110.3125 50.3125 C111.78928155 43.19709798 116.67089595 37.56730026 122.5625 33.5 C127.72811191 30.23950367 132.71378666 28.74531125 138.82177734 28.77294922 C140.50284073 28.77317581 140.50284073 28.77317581 142.21786499 28.77340698 C144.00881088 28.78889084 144.00881088 28.78889084 145.8359375 28.8046875 C147.07042633 28.8075174 148.30491516 28.81034729 149.57681274 28.81326294 C153.50964149 28.82443478 157.44224037 28.84953436 161.375 28.875 C164.04556959 28.88616175 166.71613701 28.89415881 169.38671875 28.90234375 C175.92455725 28.92436435 182.4622622 28.95781241 189 29 C188.95359375 28.18015625 188.9071875 27.3603125 188.859375 26.515625 C188.82328125 25.43796875 188.7871875 24.3603125 188.75 23.25 C188.70359375 22.18265625 188.6571875 21.1153125 188.609375 20.015625 C189.08658514 16.33156272 190.11325143 15.2479218 193 13 C195 12.46875 195 12.46875 197 12.5 C197.66 12.4896875 198.32 12.479375 199 12.46875 C201.95613104 13.25397231 203.09984561 14.62505125 205 17 C205.45410156 20.02441406 205.45410156 20.02441406 205.390625 23.515625 C205.37128906 25.39121094 205.37128906 25.39121094 205.3515625 27.3046875 C205.31804687 28.60664062 205.28453125 29.90859375 205.25 31.25 C205.23195313 32.56742188 205.21390625 33.88484375 205.1953125 35.2421875 C205.14816271 38.49552308 205.08236044 41.74739625 205 45 C206.06959961 44.97905273 207.13919922 44.95810547 208.24121094 44.93652344 C212.21438173 44.86405374 216.18749425 44.81817537 220.16113281 44.78027344 C221.87998279 44.76017372 223.59876452 44.73288911 225.31738281 44.69824219 C227.78988489 44.64964966 230.2614821 44.62701565 232.734375 44.609375 C233.88459137 44.57840729 233.88459137 44.57840729 235.05804443 44.54681396 C238.63732968 44.54531296 240.59843968 44.69286873 243.48339844 46.89941406 C245.12430791 49.17217406 245.54328235 50.22992986 245.5 53 C245.51546875 53.99 245.51546875 53.99 245.53125 55 C244.72774622 58.02495539 243.48647581 59.09823222 241 61 C238.1103488 61.3491005 235.6140729 61.4681562 232.734375 61.390625 C231.94097717 61.38496521 231.14757935 61.37930542 230.33013916 61.37347412 C227.80280527 61.35113147 225.27690335 61.30094176 222.75 61.25 C221.03387468 61.22993214 219.31772708 61.21168187 217.6015625 61.1953125 C213.40004987 61.15467892 209.20162233 61.07639313 205 61 C205 71.56 205 82.12 205 93 C207.55234375 92.95359375 210.1046875 92.9071875 212.734375 92.859375 C215.20994071 92.82816843 217.68548441 92.80388702 220.16113281 92.78027344 C221.87998279 92.76017372 223.59876452 92.73288911 225.31738281 92.69824219 C227.78988489 92.64964966 230.2614821 92.62701565 232.734375 92.609375 C233.88459137 92.57840729 233.88459137 92.57840729 235.05804443 92.54681396 C238.63732968 92.54531296 240.59843968 92.69286873 243.48339844 94.89941406 C245.12430791 97.17217406 245.54328235 98.22992986 245.5 101 C245.51546875 101.99 245.51546875 101.99 245.53125 103 C244.72774622 106.02495539 243.48647581 107.09823222 241 109 C238.1103488 109.3491005 235.6140729 109.4681562 232.734375 109.390625 C231.94097717 109.38496521 231.14757935 109.37930542 230.33013916 109.37347412 C227.80280527 109.35113147 225.27690335 109.30094176 222.75 109.25 C221.03387468 109.22993214 219.31772708 109.21168187 217.6015625 109.1953125 C213.4004922 109.15127395 209.20048865 109.08226326 205 109 C205.02094727 109.82725586 205.04189453 110.65451172 205.06347656 111.50683594 C205.14661619 115.2544337 205.19865531 119.00183749 205.25 122.75 C205.30027344 124.70292969 205.30027344 124.70292969 205.3515625 126.6953125 C205.36445313 127.94570312 205.37734375 129.19609375 205.390625 130.484375 C205.41157227 131.63647461 205.43251953 132.78857422 205.45410156 133.97558594 C204.90518851 137.63146493 203.883582 138.76793862 201 141 C199 141.53125 199 141.53125 197 141.5 C196.01 141.51546875 196.01 141.51546875 195 141.53125 C192.0512624 140.74799158 190.89658456 139.36485285 189 137 C188.609375 133.984375 188.609375 133.984375 188.75 130.75 C188.78609375 129.67234375 188.8221875 128.5946875 188.859375 127.484375 C188.90578125 126.66453125 188.9521875 125.8446875 189 125 C188.31841324 125.00888245 187.63682648 125.01776489 186.93458557 125.0269165 C179.81267723 125.11571013 172.69092729 125.17586719 165.56860352 125.21972656 C162.91366314 125.23752053 160.25959468 125.2670388 157.60473633 125.30175781 C153.77934916 125.35051626 149.9545485 125.37302497 146.12890625 125.390625 C144.95042618 125.41127014 143.77194611 125.43191528 142.55775452 125.45318604 C132.76795754 125.45582573 124.24434362 122.84668275 117 116 C113.0394896 111.1722898 110.77483562 107.26175299 110 101 C109.00202393 101.0314209 109.00202393 101.0314209 107.98388672 101.06347656 C104.94774698 101.14700609 101.91184957 101.19877603 98.875 101.25 C97.82828125 101.28351563 96.7815625 101.31703125 95.703125 101.3515625 C89.44768779 101.43074525 85.72329477 101.24789822 81 97 C77.22303279 92.42788179 77 91.24601419 77 85 C63.8 85 50.6 85 37 85 C36.67 88.63 36.34 92.26 36 96 C31.66071423 119.80478239 17.28183894 142.00512953 -2.37597656 156.0378418 C-10.40539203 161.49922509 -18.85574097 165.74688211 -28 169 C-28.6300293 169.22445801 -29.26005859 169.44891602 -29.90917969 169.68017578 C-53.33789576 177.54406477 -80.24917975 174.40012859 -102.27734375 163.9140625 C-125.24143443 152.41727769 -142.538057 132.1340623 -151 108 C-153.23586739 100.41098284 -155.11946697 92.94947304 -155 85 C-159.31958306 85.09498681 -163.63870652 85.20135838 -167.95776367 85.31738281 C-169.42090591 85.35519093 -170.88412602 85.39011837 -172.34741211 85.421875 C-191.02294556 85.83190386 -206.95612581 87.34385617 -220.94140625 100.87890625 C-232.10492339 112.81398397 -234.1407111 127.20157877 -234.15821838 142.88990784 C-234.16315636 143.84498181 -234.16809434 144.80005578 -234.17318195 145.78407139 C-234.18845548 148.96224713 -234.19688987 152.14040283 -234.20532227 155.31860352 C-234.21490878 157.60561802 -234.22491931 159.89263078 -234.23532104 162.17964172 C-234.2622924 168.37311493 -234.28334392 174.5665957 -234.30332303 180.76009488 C-234.32523064 187.23834682 -234.35259592 193.71657567 -234.37937927 200.19480896 C-234.42357944 211.06321214 -234.46442546 221.93162317 -234.50268555 232.80004883 C-234.54209074 243.99113897 -234.58352888 255.18221857 -234.62768555 266.37329102 C-234.63040982 267.06390948 -234.63313409 267.75452794 -234.63594092 268.46607424 C-234.64962122 271.93094319 -234.66334133 275.39581198 -234.67708123 278.8606807 C-234.79089118 307.57376497 -234.8976627 336.28687267 -235 365 C-229.72 365 -224.44 365 -219 365 C-219.04640625 363.73027344 -219.0928125 362.46054687 -219.140625 361.15234375 C-219.65307336 341.26585335 -215.30703441 323.5488389 -201.625 308.5625 C-189.67332787 296.10098268 -174.41245584 286.15331302 -156.703125 284.828125 C-155.13442036 284.81557536 -153.56512112 284.8932872 -152 285 C-151.77054687 284.21367187 -151.54109375 283.42734375 -151.3046875 282.6171875 C-138.54075182 247.22974905 -109.04396149 218.0618035 -75.4375 202.125 C-54.78975166 193.00261119 -34.17851009 188.76789889 -11.625 188.75 C-10.86333527 188.74932526 -10.10167053 188.74865051 -9.31692505 188.74795532 C2.05585486 188.76397185 12.9299096 189.22968474 24 192 C24.68690918 192.16628906 25.37381836 192.33257812 26.08154297 192.50390625 C58.56264787 200.53311048 88.90593269 220.17049114 109 247 C109.70253906 247.91394531 110.40507812 248.82789063 111.12890625 249.76953125 C130 275.52739267 130 275.52739267 130 285 C130.67857056 284.99111755 131.35714111 284.98223511 132.05627441 284.9730835 C139.19546989 284.88376527 146.33450363 284.82391947 153.47412109 284.78027344 C156.12972034 284.7625882 158.78442635 284.73312688 161.43994141 284.69824219 C195.69753774 284.25986873 195.69753774 284.25986873 211.4375 292.875 C212.10233398 293.22522217 212.76716797 293.57544434 213.45214844 293.9362793 C215.31651715 294.93296443 217.16131228 295.95685223 219 297 C219.85207031 297.48339844 220.70414062 297.96679688 221.58203125 298.46484375 C242.40458408 311.40859281 255.01269216 332.79189349 260.53215027 356.26292419 C261.06866486 359.40171219 261.14972296 362.37791159 261.17700195 365.56274414 C261.18983719 366.87082535 261.20267242 368.17890656 261.21589661 369.52662659 C261.22406147 370.9461326 261.23150569 372.36564292 261.23828125 373.78515625 C261.24235678 374.5037274 261.2464323 375.22229855 261.25063133 375.96264458 C261.27142642 379.76033103 261.28576082 383.55798196 261.29516602 387.35571289 C261.30626525 391.27557618 261.34072324 395.19487726 261.38033772 399.11454105 C261.40646412 402.13342856 261.41485385 405.15218056 261.41844749 408.17117119 C261.42331752 409.61647817 261.4349435 411.06177893 261.45348549 412.50697517 C261.47780544 414.52672797 261.47449918 416.54675625 261.4699707 418.56665039 C261.47583694 419.71516983 261.48170319 420.86368927 261.48774719 422.04701233 C261 425 261 425 259.32008362 427.37788391 C256.43766973 429.39316039 254.90409507 429.46267309 251.40869141 429.38720703 C250.28717682 429.37464874 249.16566223 429.36209045 248.01016235 429.34915161 C246.8028244 429.3190097 245.59548645 429.2888678 244.3515625 429.2578125 C241.7942802 429.24306686 239.23698712 429.23010118 236.6796875 429.21875 C232.64776297 429.18396379 228.61701984 429.1277903 224.5859375 429.03808594 C220.69431324 428.96288087 216.80632305 428.94980685 212.9140625 428.9453125 C211.71077301 428.90302521 210.50748352 428.86073792 209.26773071 428.81716919 C205.89536717 428.83617071 203.20571702 428.94479413 200 430 C197.16658471 433.0156734 195.64218965 436.23868406 194 440 C186.19966552 451.14333497 173.02721096 457.98947626 160 461 C156.36301251 461.41464243 152.78305666 461.4779418 149.125 461.4375 C147.67710083 461.42614014 147.67710083 461.42614014 146.19995117 461.41455078 C138.8700511 461.24542298 132.64819581 460.23425742 126 457 C125.03835938 456.54109375 124.07671875 456.0821875 123.0859375 455.609375 C111.65369098 449.75458568 103.66805626 441.65814357 98 430 C78.02478627 429.76637503 58.0498498 429.59004623 38.07355309 429.48187828 C28.79808249 429.43031813 19.52346083 429.36002959 10.24853516 429.24560547 C2.16421973 429.14591739 -5.91948097 429.08141494 -14.00439394 429.05911505 C-18.28551928 429.04607906 -22.5648861 429.01546232 -26.84544754 428.94269943 C-30.87612921 428.87474018 -34.90433145 428.85389671 -38.93553162 428.86892319 C-40.4134762 428.86617525 -41.89150487 428.84632068 -43.3689537 428.80794525 C-47.75364853 428.69965732 -51.78618007 428.72373079 -56 430 C-58.96219745 432.99729068 -60.41807869 436.13992349 -62 440 C-69.80033448 451.14333497 -82.97278904 457.98947626 -96 461 C-99.63698749 461.41464243 -103.21694334 461.4779418 -106.875 461.4375 C-108.32289917 461.42614014 -108.32289917 461.42614014 -109.80004883 461.41455078 C-117.1299489 461.24542298 -123.35180419 460.23425742 -130 457 C-130.96164063 456.54109375 -131.92328125 456.0821875 -132.9140625 455.609375 C-144.34630902 449.75458568 -152.33194374 441.65814357 -158 430 C-158.7052179 429.99635437 -159.41043579 429.99270874 -160.13702393 429.98895264 C-166.78774598 429.95106327 -173.43800468 429.89420061 -180.08838272 429.81609726 C-183.5073461 429.7766116 -186.92605154 429.74442901 -190.34521484 429.72900391 C-194.27735371 429.71094309 -198.20877765 429.66099649 -202.140625 429.609375 C-203.36678528 429.60814636 -204.59294556 429.60691772 -205.85626221 429.60565186 C-206.99714294 429.58593323 -208.13802368 429.5662146 -209.31347656 429.54589844 C-210.31719299 429.53701599 -211.32090942 429.52813354 -212.3550415 429.51898193 C-215.75685295 428.8514937 -216.94529219 427.75935041 -219 425 C-219.48101807 422.84857178 -219.48101807 422.84857178 -219.45410156 420.50683594 C-219.45364838 419.18591949 -219.45364838 419.18591949 -219.45318604 417.83831787 C-219.43254089 416.89651672 -219.41189575 415.95471558 -219.390625 414.984375 C-219.38496521 414.01340881 -219.37930542 413.04244263 -219.37347412 412.04205322 C-219.35110311 408.94419831 -219.30090473 405.84750467 -219.25 402.75 C-219.22993597 400.64845422 -219.21168503 398.54689028 -219.1953125 396.4453125 C-219.1512358 391.2964283 -219.08220258 386.14841097 -219 381 C-219.82725586 381.02094727 -220.65451172 381.04189453 -221.50683594 381.06347656 C-225.2544337 381.14661619 -229.00183749 381.19865531 -232.75 381.25 C-234.70292969 381.30027344 -234.70292969 381.30027344 -236.6953125 381.3515625 C-237.94570312 381.36445313 -239.19609375 381.37734375 -240.484375 381.390625 C-241.63647461 381.41157227 -242.78857422 381.43251953 -243.97558594 381.45410156 C-247 381 -247 381 -249.15727997 379.60363674 C-252.0113911 375.5709739 -251.55208406 371.71469567 -251.50793457 366.88771057 C-251.51417453 365.84807582 -251.5204145 364.80844108 -251.52684355 363.73730224 C-251.54284009 360.24203879 -251.53014244 356.7474663 -251.51757812 353.25219727 C-251.52299655 350.75056042 -251.53011764 348.24892677 -251.53881836 345.74729919 C-251.55519578 339.648649 -251.55275366 333.55027134 -251.5411678 327.45163167 C-251.5321337 322.49043738 -251.53090939 317.52929822 -251.53526306 312.56809807 C-251.53587599 311.86190095 -251.53648893 311.15570383 -251.53712043 310.4281068 C-251.53839937 308.99335542 -251.53969622 307.55860406 -251.5410108 306.12385272 C-251.55242406 292.66070941 -251.53929513 279.19767492 -251.51780933 265.73454946 C-251.49997252 254.20164034 -251.50301269 242.66889246 -251.52148438 231.13598633 C-251.54293824 217.73493243 -251.55128864 204.33397429 -251.53903532 190.93290561 C-251.5377612 189.50068503 -251.53650371 188.06846443 -251.53526306 186.63624382 C-251.53464596 185.9316408 -251.53402886 185.22703778 -251.53339306 184.50108315 C-251.52995105 179.55482725 -251.53574433 174.60863239 -251.54518127 169.66238594 C-251.55763757 162.98680176 -251.54864177 156.31156646 -251.52560425 149.63599586 C-251.5203363 147.19198355 -251.52179791 144.74794558 -251.53065491 142.30394363 C-251.60840919 118.65864229 -251.60840919 118.65864229 -247 108 C-246.49339844 106.78183594 -245.98679688 105.56367188 -245.46484375 104.30859375 C-236.91894904 88.24406022 -224.25050334 77.20739136 -207 71 C-200.51876322 69.17419117 -194.42343662 68.72723721 -187.71484375 68.8046875 C-186.77314835 68.8075174 -185.83145294 68.81034729 -184.86122131 68.81326294 C-181.88651209 68.82435793 -178.91211649 68.84944198 -175.9375 68.875 C-173.90690542 68.88504363 -171.87630608 68.89416704 -169.84570312 68.90234375 C-164.89701664 68.92426216 -159.94856129 68.958717 -155 69 C-154.95174072 68.22366211 -154.90348145 67.44732422 -154.85375977 66.64746094 C-153.11840823 42.23571882 -140.74570202 19.59080379 -122.57470703 3.32910156 C-112.91794819 -4.82150234 -101.87174164 -10.77656593 -90 -15 C-89.3699707 -15.22445801 -88.73994141 -15.44891602 -88.09082031 -15.68017578 C-58.61139192 -25.5749968 -24.39298608 -18.65141304 0 0 Z " fill="#322B33" transform="translate(251,35)"/>
<path d="M0 0 C1.12712402 0.00491455 2.25424805 0.0098291 3.41552734 0.01489258 C40.32361942 0.52395171 72.37568166 14.98781272 98.9375 40.375 C112.1692627 54.0378258 120.72301775 69.59631849 129.06469727 86.52026367 C131.40793007 91.72816069 131.40793007 91.72816069 135.5 95.3125 C137.36081557 95.41200793 139.22515931 95.4480749 141.08862305 95.4543457 C142.26132248 95.46138016 143.43402191 95.46841461 144.64225769 95.47566223 C146.55764091 95.48190865 146.55764091 95.48190865 148.51171875 95.48828125 C150.5229447 95.5055482 152.53417075 95.52283975 154.54538441 95.54148388 C159.5023111 95.58687939 164.45913734 95.62464199 169.41625977 95.63842773 C172.86832425 95.64865541 176.31979062 95.67835973 179.77161598 95.71974754 C181.69814426 95.73768918 183.6248278 95.73543816 185.55143738 95.73249817 C203.71473591 95.97929338 220.86072923 102.10894194 234.5 114.3125 C235.24765625 114.96734375 235.9953125 115.6221875 236.765625 116.296875 C248.38402709 127.12490961 257.62534164 143.89285291 258.67483521 159.99494934 C258.7302755 163.08189797 258.72497806 166.16269771 258.6953125 169.25 C258.69106766 170.93101807 258.69106766 170.93101807 258.68673706 172.64599609 C258.67560251 176.20160911 258.65051014 179.75696398 258.625 183.3125 C258.61496152 185.73306926 258.60583719 188.1536425 258.59765625 190.57421875 C258.57739258 196.48715702 258.53823033 202.39954182 258.5 208.3125 C245.3 208.3125 232.1 208.3125 218.5 208.3125 C218.17 202.3725 217.84 196.4325 217.5 190.3125 C213.21018038 174.28876201 206.12662605 161.45232565 191.8125 152.5625 C177.4871958 144.76653744 161.36996231 142.46879652 145.5 146.875 C129.49868844 152.72913838 119.27796467 162.27395189 111.5 177.3125 C106.97624573 187.63761061 107.1457257 196.68943748 106.5 208.3125 C58.98 208.3125 11.46 208.3125 -37.5 208.3125 C-37.83 202.3725 -38.16 196.4325 -38.5 190.3125 C-42.78981962 174.28876201 -49.87337395 161.45232565 -64.1875 152.5625 C-78.5128042 144.76653744 -94.63003769 142.46879652 -110.5 146.875 C-126.50131156 152.72913838 -136.72203533 162.27395189 -144.5 177.3125 C-149.02375427 187.63761061 -148.8542743 196.68943748 -149.5 208.3125 C-162.7 208.3125 -175.9 208.3125 -189.5 208.3125 C-189.66043524 192.61212941 -189.66043524 192.61212941 -189.6953125 185.84179688 C-189.71908526 181.24907598 -189.74699158 176.65667856 -189.80175781 172.06420898 C-189.8457024 168.35534852 -189.86923763 164.64683563 -189.87950897 160.9377346 C-189.88681435 159.53334276 -189.90107578 158.12896667 -189.92292023 156.72472572 C-190.16491908 140.50053859 -185.80500741 125.30597498 -174.53515625 113.21875 C-162.89961328 102.32019919 -149.78346301 96.55726932 -134.015625 95.65625 C-131.28078439 95.28254507 -129.81276929 94.81299185 -127.5 93.3125 C-125.93432803 90.91164233 -125.93432803 90.91164233 -124.65234375 87.9921875 C-124.13526855 86.90695801 -123.61819336 85.82172852 -123.08544922 84.70361328 C-122.54162598 83.5432959 -121.99780273 82.38297852 -121.4375 81.1875 C-113.69590016 65.22685443 -104.85971301 51.98511713 -92.5 39.3125 C-91.9328125 38.6834375 -91.365625 38.054375 -90.78125 37.40625 C-68.48835088 13.29352238 -32.25880412 -0.16895836 0 0 Z " fill="#89C8FD" transform="translate(237.5,239.6875)"/>
<path d="M0 0 C0.80953125 0.65613281 1.6190625 1.31226562 2.453125 1.98828125 C3.15953125 2.53097656 3.8659375 3.07367188 4.59375 3.6328125 C19.01342378 15.29912338 29.09645086 34.6424795 31.453125 52.98828125 C33.47410572 74.00480008 28.81946043 94.94419828 15.890625 111.92578125 C14.75278833 113.28667401 13.60756018 114.6414402 12.453125 115.98828125 C12.00710937 116.57738281 11.56109375 117.16648438 11.1015625 117.7734375 C-0.53940749 132.71608612 -20.19579461 141.1569717 -38.546875 143.98828125 C-59.52980888 146.13699574 -79.72351666 141.27094584 -96.609375 128.36328125 C-97.92977095 127.24755915 -99.24305996 126.12333526 -100.546875 124.98828125 C-101.42666016 124.32119141 -101.42666016 124.32119141 -102.32421875 123.640625 C-117.41253823 111.90526541 -125.01177273 92.86088125 -128.1328125 74.55078125 C-130.6249468 53.10902203 -125.81728404 32.44403949 -112.44140625 15.30859375 C-111.81621094 14.54289062 -111.19101563 13.7771875 -110.546875 12.98828125 C-110.05574219 12.34632812 -109.56460938 11.704375 -109.05859375 11.04296875 C-97.88765027 -2.99151236 -79.63381084 -12.50308634 -62.125 -15.62109375 C-40.04781291 -18.03126701 -17.81820127 -13.83255098 0 0 Z " fill="#FCDD30" transform="translate(240.546875,48.01171875)"/>
<path d="M0 0 C1.76947998 0.00628418 1.76947998 0.00628418 3.57470703 0.01269531 C12.95234226 0.13326674 21.72071607 1.05178731 30.8125 3.3125 C32.43865234 3.71275391 32.43865234 3.71275391 34.09765625 4.12109375 C65.27278714 12.81304474 93.42071969 33.45191194 109.56835938 61.63647461 C111.35943706 64.8400613 113.10980993 68.06109605 114.8125 71.3125 C115.38355469 72.39402344 115.95460938 73.47554688 116.54296875 74.58984375 C118.039979 77.80035496 118.26949587 79.80886496 117.8125 83.3125 C116.03265595 86.4484157 115.28941793 87.15352736 111.8125 88.3125 C108.87384877 88.41741224 105.95850079 88.46469017 103.0194397 88.46640015 C101.65493826 88.47297353 101.65493826 88.47297353 100.26287115 88.4796797 C97.20210083 88.49307857 94.14135932 88.49924895 91.08056641 88.50537109 C88.89121876 88.51327103 86.70187243 88.52153991 84.51252747 88.53015137 C77.31305181 88.55637808 70.11357031 88.57167697 62.9140625 88.5859375 C60.43803275 88.5912964 57.96200303 88.59667391 55.48597336 88.60206985 C45.19012011 88.62369711 34.89426843 88.64243578 24.59839821 88.65369225 C21.92725241 88.6566316 19.25610665 88.6595836 16.58496094 88.66259766 C15.9210619 88.66334371 15.25716286 88.66408976 14.57314567 88.66485842 C3.81310021 88.67751807 -6.94678025 88.71075068 -17.70674853 88.75239949 C-28.75274176 88.79480526 -39.79864608 88.81797776 -50.84471953 88.82361281 C-57.04721713 88.82727268 -63.24943479 88.83936219 -69.45185471 88.87171555 C-75.28447312 88.90170441 -81.11664086 88.90814069 -86.94931984 88.89633179 C-89.09194045 88.8961103 -91.23458143 88.90447693 -93.37713051 88.92198563 C-96.29879221 88.94456497 -99.21880402 88.9364344 -102.14047241 88.92050171 C-102.99154332 88.9343838 -103.84261422 88.94826588 -104.71947515 88.96256864 C-109.04243558 88.90434218 -110.69367132 88.6983917 -114.21607399 85.94588661 C-116.1875 83.3125 -116.1875 83.3125 -116.77734375 80.5703125 C-115.94167381 75.954758 -113.98738717 72.28034105 -111.75 68.1875 C-111.2955249 67.34437256 -110.8410498 66.50124512 -110.37280273 65.63256836 C-93.83350516 35.5880471 -66.18654234 14.43753125 -33.5625 4.5625 C-32.90628662 4.36350098 -32.25007324 4.16450195 -31.57397461 3.95947266 C-21.14376536 0.97502128 -10.82376898 -0.05292797 0 0 Z " fill="#322C34" transform="translate(239.1875,247.6875)"/>
<path d="M0 0 C2.80528511 2.02510791 4.71620893 3.62186052 5.43530273 7.11390686 C5.57901735 9.72156806 5.56192908 12.28392051 5.48828125 14.89453125 C5.48120651 15.84188644 5.47413177 16.78924164 5.46684265 17.76530457 C5.43892334 20.78185021 5.37618915 23.7965184 5.3125 26.8125 C5.28741396 28.86130126 5.26460133 30.9101317 5.24414062 32.95898438 C5.18910459 37.97337621 5.10284856 42.98637014 5 48 C6.50566528 47.97643433 6.50566528 47.97643433 8.04174805 47.95239258 C11.77831955 47.89794886 15.51485621 47.86359774 19.25170898 47.83520508 C20.86667789 47.82015124 22.48160613 47.79970352 24.09643555 47.77368164 C26.42246555 47.73714714 28.74795341 47.72023985 31.07421875 47.70703125 C32.15107185 47.68380547 32.15107185 47.68380547 33.24967957 47.66011047 C37.68310969 47.65863386 40.47899113 48.26328577 44 51 C45.42662219 53.85324437 45.31033868 55.83454549 45 59 C42.49204959 63.07541942 38.8701762 65.97079369 35.265625 69.0546875 C32.85245053 71.12668903 30.48619051 73.24398844 28.125 75.375 C27.28453125 76.13296875 26.4440625 76.8909375 25.578125 77.671875 C24.72734375 78.44015625 23.8765625 79.2084375 23 80 C17.72014424 84.76786975 12.42708194 89.51512218 7.0625 94.1875 C4.69035571 96.27211164 2.34443935 98.38428644 0 100.5 C-3.61751397 103.76458578 -7.26383049 106.99089491 -10.94140625 110.1875 C-13.29952531 112.26371868 -15.6162744 114.38264168 -17.9375 116.5 C-30.45288091 127.70809074 -30.45288091 127.70809074 -35.3125 128.625 C-38.29648929 127.931049 -39.83804426 127.16195574 -42 125 C-42.91861784 122.24414648 -43.12204322 120.6403931 -43.11352539 117.80395508 C-43.11344986 116.96331009 -43.11337433 116.1226651 -43.11329651 115.25654602 C-43.10813522 114.35333115 -43.10297394 113.45011627 -43.09765625 112.51953125 C-43.0962413 111.59154221 -43.09482635 110.66355316 -43.09336853 109.70744324 C-43.08776937 106.74242942 -43.07521704 103.77749101 -43.0625 100.8125 C-43.05748489 98.80273547 -43.052922 96.79296975 -43.04882812 94.78320312 C-43.03780021 89.85543968 -43.02053617 84.92773263 -43 80 C-44.03406982 80.02618408 -45.06813965 80.05236816 -46.13354492 80.0793457 C-49.98179359 80.17006423 -53.8299484 80.22732659 -57.67895508 80.2746582 C-59.34252839 80.29975347 -61.00599196 80.33383796 -62.66918945 80.37719727 C-65.06489153 80.4380746 -67.45913251 80.46625769 -69.85546875 80.48828125 C-70.5952446 80.51408768 -71.33502045 80.5398941 -72.09721375 80.56648254 C-76.07454863 80.56862728 -77.81152161 80.14849578 -80.97387695 77.65698242 C-83 75 -83 75 -83.5625 72 C-82.43601798 65.99209588 -77.71249074 62.74859803 -73.2734375 58.953125 C-70.81335841 56.83965499 -68.40514379 54.67573008 -66 52.5 C-62.38323655 49.23609152 -58.73610392 46.01209051 -55.0625 42.8125 C-52.69035571 40.72788836 -50.34443935 38.61571356 -48 36.5 C-44.38323655 33.23609152 -40.73610392 30.01209051 -37.0625 26.8125 C-34.69035571 24.72788836 -32.34443935 22.61571356 -30 20.5 C-25.70025333 16.62564684 -21.38589957 12.77652413 -17 9 C-16.09894531 8.19691406 -15.19789063 7.39382812 -14.26953125 6.56640625 C-13.31433594 5.74011719 -12.35914063 4.91382813 -11.375 4.0625 C-10.49585938 3.29035156 -9.61671875 2.51820312 -8.7109375 1.72265625 C-5.40461654 -0.37833445 -3.84533034 -0.73172297 0 0 Z " fill="#332C32" transform="translate(211,48)"/>
<path d="M0 0 C11.69043677 6.63039697 18.84979574 15.57220324 22.6171875 28.484375 C23.9494737 40.27355868 21.37604835 51.87719086 14.296875 61.4921875 C7.33466834 69.74968843 -2.56532891 75.80627853 -13.53515625 76.7578125 C-25.96060989 77.0912096 -36.00864238 74.05984901 -45.3828125 65.484375 C-53.35781694 57.62064969 -57.64777964 48.03122993 -57.7578125 36.796875 C-57.69086396 24.3743597 -53.3565705 15.5527994 -44.65625 6.734375 C-32.40155684 -4.45712561 -14.95066136 -7.21197215 0 0 Z " fill="#332C34" transform="translate(417.3828125,403.515625)"/>
<path d="M0 0 C11.69043677 6.63039697 18.84979574 15.57220324 22.6171875 28.484375 C23.9494737 40.27355868 21.37604835 51.87719086 14.296875 61.4921875 C7.33466834 69.74968843 -2.56532891 75.80627853 -13.53515625 76.7578125 C-25.96060989 77.0912096 -36.00864238 74.05984901 -45.3828125 65.484375 C-53.35781694 57.62064969 -57.64777964 48.03122993 -57.7578125 36.796875 C-57.69086396 24.3743597 -53.3565705 15.5527994 -44.65625 6.734375 C-32.40155684 -4.45712561 -14.95066136 -7.21197215 0 0 Z " fill="#332C34" transform="translate(161.3828125,403.515625)"/>
<path d="M0 0 C1.07580322 0.00012085 2.15160645 0.0002417 3.26000977 0.00036621 C4.96120972 0.00804016 4.96120972 0.00804016 6.69677734 0.01586914 C7.73664795 0.01687622 8.77651855 0.0178833 9.84790039 0.0189209 C13.74284971 0.02416404 17.63778335 0.03812524 21.53271484 0.05102539 C30.23646484 0.07165039 38.94021484 0.09227539 47.90771484 0.11352539 C47.90771484 21.23352539 47.90771484 42.35352539 47.90771484 64.11352539 C39.28646484 64.19602539 30.66521484 64.27852539 21.78271484 64.36352539 C17.71419189 64.41814941 17.71419189 64.41814941 13.56347656 64.47387695 C11.4047932 64.48556344 9.24610101 64.49575536 7.08740234 64.50415039 C5.97373291 64.52461426 4.86006348 64.54507813 3.71264648 64.56616211 C-2.55680854 64.56898048 -6.34965173 64.36353126 -11.09228516 60.11352539 C-14.59506159 56.23207042 -16.19615017 53.33185649 -16.26928711 48.10449219 C-16.28212234 47.3032341 -16.29495758 46.50197601 -16.30818176 45.67643738 C-16.3155687 44.81391861 -16.32295563 43.95139984 -16.33056641 43.06274414 C-16.33863815 42.17118118 -16.3467099 41.27961823 -16.35502625 40.36103821 C-16.36885422 38.47394753 -16.37958213 36.58683197 -16.38745117 34.69970703 C-16.40465861 31.82218739 -16.44855503 28.94581858 -16.49267578 26.06860352 C-16.50280371 24.23332549 -16.5113195 22.39803771 -16.51806641 20.56274414 C-16.53557449 19.70629807 -16.55308258 18.84985199 -16.57112122 17.967453 C-16.55144595 12.51516968 -15.71450176 9.44156741 -12.09228516 5.11352539 C-7.8659228 1.39030141 -5.58750091 -0.01324052 0 0 Z " fill="#FDDE30" transform="translate(392.09228515625,79.886474609375)"/>
<path d="M0 0 C27.69762375 0 51.91098178 13.41672209 71.5625 32.1875 C77.79422167 38.52681974 85.15725262 46.47175787 88 55 C58.96 55 29.92 55 0 55 C0 36.85 0 18.7 0 0 Z " fill="#239FE4" transform="translate(248,265)"/>
<path d="M0 0 C0 18.15 0 36.3 0 55 C-29.04 55 -58.08 55 -88 55 C-73.9254904 29.66588272 -51.04574631 11.50614495 -23.4375 2.96484375 C-15.29462362 0.6792864 -8.6764894 0 0 0 Z " fill="#48B3FB" transform="translate(232,265)"/>
<path d="M0 0 C11.69043677 6.63039697 18.84979574 15.57220324 22.6171875 28.484375 C23.9494737 40.27355868 21.37604835 51.87719086 14.296875 61.4921875 C7.33466834 69.74968843 -2.56532891 75.80627853 -13.53515625 76.7578125 C-25.96060989 77.0912096 -36.00864238 74.05984901 -45.3828125 65.484375 C-53.35781694 57.62064969 -57.64777964 48.03122993 -57.7578125 36.796875 C-57.69086396 24.3743597 -53.3565705 15.5527994 -44.65625 6.734375 C-32.40155684 -4.45712561 -14.95066136 -7.21197215 0 0 Z M-33.3828125 8.484375 C-34.43082031 9.12052734 -34.43082031 9.12052734 -35.5 9.76953125 C-42.28308744 14.36411312 -47.75368954 21.3387602 -49.3828125 29.484375 C-50.28701983 39.84165893 -48.3183862 48.84540725 -42.25390625 57.375 C-36.73426757 63.59755717 -29.66644675 67.83249805 -21.375 68.85546875 C-11.18798056 69.07248545 -1.52561587 66.57094042 6.0859375 59.42578125 C13.19442052 50.41324028 15.62315716 40.72006431 14.6171875 29.484375 C13.71479536 26.17904151 12.37200147 23.4182046 10.6171875 20.484375 C10.2046875 19.78441406 9.7921875 19.08445312 9.3671875 18.36328125 C4.45838421 10.98613085 -2.94985642 6.8357696 -11.3828125 4.484375 C-19.54328406 3.60382223 -26.3331534 4.18220661 -33.3828125 8.484375 Z " fill="#978A95" transform="translate(417.3828125,403.515625)"/>
<path d="M0 0 C11.69043677 6.63039697 18.84979574 15.57220324 22.6171875 28.484375 C23.9494737 40.27355868 21.37604835 51.87719086 14.296875 61.4921875 C7.33466834 69.74968843 -2.56532891 75.80627853 -13.53515625 76.7578125 C-25.96060989 77.0912096 -36.00864238 74.05984901 -45.3828125 65.484375 C-53.35781694 57.62064969 -57.64777964 48.03122993 -57.7578125 36.796875 C-57.69086396 24.3743597 -53.3565705 15.5527994 -44.65625 6.734375 C-32.40155684 -4.45712561 -14.95066136 -7.21197215 0 0 Z M-33.3828125 8.484375 C-34.43082031 9.12052734 -34.43082031 9.12052734 -35.5 9.76953125 C-42.28308744 14.36411312 -47.75368954 21.3387602 -49.3828125 29.484375 C-50.28701983 39.84165893 -48.3183862 48.84540725 -42.25390625 57.375 C-36.73426757 63.59755717 -29.66644675 67.83249805 -21.375 68.85546875 C-11.18798056 69.07248545 -1.52561587 66.57094042 6.0859375 59.42578125 C13.19442052 50.41324028 15.62315716 40.72006431 14.6171875 29.484375 C13.71479536 26.17904151 12.37200147 23.4182046 10.6171875 20.484375 C10.2046875 19.78441406 9.7921875 19.08445312 9.3671875 18.36328125 C4.45838421 10.98613085 -2.94985642 6.8357696 -11.3828125 4.484375 C-19.54328406 3.60382223 -26.3331534 4.18220661 -33.3828125 8.484375 Z " fill="#978A95" transform="translate(161.3828125,403.515625)"/>
<path d="M0 0 C0.029729 1.4226416 0.029729 1.4226416 0.06005859 2.87402344 C0.13825761 6.40032364 0.22495366 9.92620361 0.31738281 13.45214844 C0.35561266 14.97680658 0.390476 16.50155307 0.421875 18.02636719 C0.46765662 20.22102381 0.52562766 22.4150754 0.5859375 24.609375 C0.59748871 25.2886908 0.60903992 25.96800659 0.62094116 26.66790771 C0.73158878 30.23386804 0.95099026 33.01614663 3 36 C5.40541929 37.20270964 7.10366591 37.20316663 9.7890625 37.31640625 C10.73007813 37.35830078 11.67109375 37.40019531 12.640625 37.44335938 C14.11789063 37.50233398 14.11789063 37.50233398 15.625 37.5625 C17.11386719 37.62727539 17.11386719 37.62727539 18.6328125 37.69335938 C21.08839838 37.79961069 23.54408703 37.90164964 26 38 C22.58364123 42.11074063 19.14995354 45.96331951 15.125 49.5 C14.26132813 50.263125 13.39765625 51.02625 12.5078125 51.8125 C11.68023437 52.534375 10.85265625 53.25625 10 54 C9.31679687 54.598125 8.63359375 55.19625 7.9296875 55.8125 C6.64239713 56.93822761 5.35332915 58.06192568 4.0625 59.18359375 C0.89527573 61.97291058 -2.2075967 64.83300709 -5.3125 67.69140625 C-8.74614336 70.64094582 -12.35345098 73.32107588 -16 76 C-16.01981934 75.01604248 -16.03963867 74.03208496 -16.06005859 73.01831055 C-16.13613987 69.36717161 -16.224853 65.71642991 -16.31738281 62.06567383 C-16.35566221 60.48567549 -16.39051697 58.90559031 -16.421875 57.32543945 C-16.46754876 55.05388355 -16.52553784 52.78292491 -16.5859375 50.51171875 C-16.59748871 49.80536789 -16.60903992 49.09901703 -16.62094116 48.3712616 C-16.73071048 44.72258607 -16.92142364 43.11786454 -19 40 C-21.7902667 39.0699111 -23.76529542 38.81301231 -26.66796875 38.68359375 C-28.00698242 38.62075195 -28.00698242 38.62075195 -29.37304688 38.55664062 C-30.76620117 38.49766602 -30.76620117 38.49766602 -32.1875 38.4375 C-33.12787109 38.39431641 -34.06824219 38.35113281 -35.03710938 38.30664062 C-37.35792854 38.20061335 -39.67885325 38.09854971 -42 38 C-35.6310336 30.35615648 -28.50112333 23.98286206 -20.75 17.75 C-15.43400774 13.46217243 -10.45845882 8.86299805 -5.50683594 4.16503906 C-1.09840163 0 -1.09840163 0 0 0 Z " fill="#F7BB00" transform="translate(200,74)"/>
<path d="M0 0 C5.67476113 1.96434039 9.31400331 5.62800662 12 11 C12.59057744 16.67862925 12.29370905 21.16922672 9 26 C4.99653611 30.03627917 1.41408246 32.12458106 -4.3125 32.3125 C-8.94226662 32.25237316 -11.4369151 31.06591027 -15 28 C-19.3022759 23.23261319 -20.36282503 19.56252705 -20.28125 13.28125 C-19.69180611 8.50020514 -16.85179203 5.75038822 -13.375 2.6875 C-8.92314854 -0.47565762 -5.3540278 -0.48837416 0 0 Z " fill="#867785" transform="translate(404,424)"/>
<path d="M0 0 C5.67476113 1.96434039 9.31400331 5.62800662 12 11 C12.59057744 16.67862925 12.29370905 21.16922672 9 26 C4.99653611 30.03627917 1.41408246 32.12458106 -4.3125 32.3125 C-8.94226662 32.25237316 -11.4369151 31.06591027 -15 28 C-19.3022759 23.23261319 -20.36282503 19.56252705 -20.28125 13.28125 C-19.69180611 8.50020514 -16.85179203 5.75038822 -13.375 2.6875 C-8.92314854 -0.47565762 -5.3540278 -0.48837416 0 0 Z " fill="#867785" transform="translate(148,424)"/>
<path d="M0 0 C1.26972656 0.00257813 2.53945313 0.00515625 3.84765625 0.0078125 C5.16636719 0.03617187 6.48507812 0.06453125 7.84375 0.09375 C9.16246094 0.09117187 10.48117187 0.08859375 11.83984375 0.0859375 C22.77449158 0.19694915 22.77449158 0.19694915 27.34375 3.59375 C28.74832737 6.40290474 28.59270157 8.48185534 28.34375 11.59375 C26.56390595 14.7296657 25.82066793 15.43477736 22.34375 16.59375 C18.23251683 16.86499388 14.12143728 16.90688817 10.00195312 16.94384766 C8.64989001 16.96040751 7.29791446 16.98769924 5.94628906 17.02587891 C3.98816461 17.08082871 2.0291272 17.099416 0.0703125 17.1171875 C-1.09935059 17.13700684 -2.26901367 17.15682617 -3.47412109 17.17724609 C-7.60762496 16.41929963 -9.07026796 14.83412437 -11.65625 11.59375 C-12.28125 8.59375 -12.28125 8.59375 -11.65625 5.59375 C-8.02251354 1.05742951 -5.77097589 -0.03536531 0 0 Z " fill="#332D36" transform="translate(267.65625,351.40625)"/>
<path d="M0 0 C5.28 0 10.56 0 16 0 C16 5.28 16 10.56 16 16 C10.72 16 5.44 16 0 16 C0 10.72 0 5.44 0 0 Z " fill="#F9BD00" transform="translate(344,104)"/>
</svg>
